{
	"asset":{
		"generator":"Khronos glTF Blender I/O v4.4.56",
		"version":"2.0"
	},
	"extensionsUsed":[
		"KHR_lights_punctual"
	],
	"extensionsRequired":[
		"KHR_lights_punctual"
	],
	"extensions":{
		"KHR_lights_punctual":{
			"lights":[
				{
					"color":[
						1,
						1,
						1
					],
					"intensity":683,
					"type":"directional",
					"name":"Sun",
					"extras":{
						"skein_two":[
							{
								"name":"DirectionalLight",
								"selected_type_path":"bevy_pbr::light::directional_light::DirectionalLight",
								"bevy_pbr::light::directional_light::DirectionalLight":{
									"color":{
										"Srgba":{},
										"LinearRgba":{
											"alpha":1.0,
											"blue":1.0,
											"green":1.0,
											"red":1.0
										},
										"Hsla":{},
										"Hsva":{},
										"Hwba":{},
										"Laba":{},
										"Lcha":{},
										"Oklaba":{},
										"Oklcha":{},
										"Xyza":{},
										"skein_enum_index":1
									},
									"affects_lightmapped_mesh_diffuse":1,
									"illuminance":1000.0,
									"shadow_depth_bias":0.019999999552965164,
									"shadow_normal_bias":1.7999999523162842,
									"shadows_enabled":1
								}
							}
						],
						"active_component_index":0,
						"skein":[
							{
								"bevy_pbr::light::directional_light::DirectionalLight":{
									"affects_lightmapped_mesh_diffuse":true,
									"color":{
										"LinearRgba":{
											"alpha":1.0,
											"blue":1.0,
											"green":1.0,
											"red":1.0
										}
									},
									"illuminance":1000.0,
									"shadow_depth_bias":0.019999999552965164,
									"shadow_normal_bias":1.7999999523162842,
									"shadows_enabled":true
								}
							}
						]
					}
				}
			]
		}
	},
	"scene":0,
	"scenes":[
		{
			"extras":{
				"skein_two":[
					{
						"name":"DirectionalLight",
						"selected_type_path":"bevy_pbr::light::directional_light::DirectionalLight",
						"bevy_pbr::light::directional_light::DirectionalLight":{
							"color":{
								"Srgba":{},
								"LinearRgba":{
									"alpha":1.0,
									"blue":1.0,
									"green":1.0,
									"red":1.0
								},
								"Hsla":{},
								"Hsva":{},
								"Hwba":{},
								"Laba":{},
								"Lcha":{},
								"Oklaba":{},
								"Oklcha":{},
								"Xyza":{},
								"skein_enum_index":1
							},
							"affects_lightmapped_mesh_diffuse":1,
							"illuminance":10000.0,
							"shadow_depth_bias":0.019999999552965164,
							"shadow_normal_bias":1.7999999523162842,
							"shadows_enabled":1
						}
					}
				],
				"active_component_index":0
			},
			"name":"Environment",
			"nodes":[
				0,
				1,
				2,
				3,
				4,
				5,
				6,
				7
			]
		}
	],
	"nodes":[
		{
			"mesh":0,
			"name":"GroundPlane"
		},
		{
			"mesh":1,
			"name":"Cube",
			"translation":[
				3,
				0.5,
				0
			]
		},
		{
			"mesh":2,
			"name":"Cube.001",
			"translation":[
				0,
				0.5,
				3
			]
		},
		{
			"mesh":3,
			"name":"Cube.002",
			"translation":[
				0,
				0.5,
				-3
			]
		},
		{
			"mesh":4,
			"name":"Cube.003",
			"translation":[
				-3,
				0.5,
				-3
			]
		},
		{
			"mesh":5,
			"name":"Cube.004",
			"translation":[
				3,
				0.5,
				3
			]
		},
		{
			"mesh":6,
			"name":"Cube999",
			"translation":[
				0,
				0.5,
				0
			]
		},
		{
			"extensions":{
				"KHR_lights_punctual":{
					"light":0
				}
			},
			"name":"Sun",
			"rotation":[
				-0.7917568683624268,
				0,
				0,
				0.610836386680603
			]
		}
	],
	"meshes":[
		{
			"name":"Plane",
			"primitives":[
				{
					"attributes":{
						"POSITION":0,
						"NORMAL":1,
						"TEXCOORD_0":2
					},
					"indices":3
				}
			]
		},
		{
			"name":"Cube.001",
			"primitives":[
				{
					"attributes":{
						"POSITION":4,
						"NORMAL":5,
						"TEXCOORD_0":6
					},
					"indices":7
				}
			]
		},
		{
			"name":"Cube.002",
			"primitives":[
				{
					"attributes":{
						"POSITION":8,
						"NORMAL":9,
						"TEXCOORD_0":10
					},
					"indices":7
				}
			]
		},
		{
			"name":"Cube.003",
			"primitives":[
				{
					"attributes":{
						"POSITION":11,
						"NORMAL":12,
						"TEXCOORD_0":13
					},
					"indices":7
				}
			]
		},
		{
			"name":"Cube.004",
			"primitives":[
				{
					"attributes":{
						"POSITION":14,
						"NORMAL":15,
						"TEXCOORD_0":16
					},
					"indices":7
				}
			]
		},
		{
			"name":"Cube.005",
			"primitives":[
				{
					"attributes":{
						"POSITION":17,
						"NORMAL":18,
						"TEXCOORD_0":19
					},
					"indices":7
				}
			]
		},
		{
			"name":"Cube.006",
			"primitives":[
				{
					"attributes":{
						"POSITION":20,
						"NORMAL":21,
						"TEXCOORD_0":22
					},
					"indices":7
				}
			]
		}
	],
	"accessors":[
		{
			"bufferView":0,
			"componentType":5126,
			"count":4,
			"max":[
				5,
				0,
				5
			],
			"min":[
				-5,
				0,
				-5
			],
			"type":"VEC3"
		},
		{
			"bufferView":1,
			"componentType":5126,
			"count":4,
			"type":"VEC3"
		},
		{
			"bufferView":2,
			"componentType":5126,
			"count":4,
			"type":"VEC2"
		},
		{
			"bufferView":3,
			"componentType":5123,
			"count":6,
			"type":"SCALAR"
		},
		{
			"bufferView":4,
			"componentType":5126,
			"count":24,
			"max":[
				0.5,
				0.5,
				0.5
			],
			"min":[
				-0.5,
				-0.5,
				-0.5
			],
			"type":"VEC3"
		},
		{
			"bufferView":5,
			"componentType":5126,
			"count":24,
			"type":"VEC3"
		},
		{
			"bufferView":6,
			"componentType":5126,
			"count":24,
			"type":"VEC2"
		},
		{
			"bufferView":7,
			"componentType":5123,
			"count":36,
			"type":"SCALAR"
		},
		{
			"bufferView":8,
			"componentType":5126,
			"count":24,
			"max":[
				0.5,
				0.5,
				0.5
			],
			"min":[
				-0.5,
				-0.5,
				-0.5
			],
			"type":"VEC3"
		},
		{
			"bufferView":9,
			"componentType":5126,
			"count":24,
			"type":"VEC3"
		},
		{
			"bufferView":10,
			"componentType":5126,
			"count":24,
			"type":"VEC2"
		},
		{
			"bufferView":11,
			"componentType":5126,
			"count":24,
			"max":[
				0.5,
				0.5,
				0.5
			],
			"min":[
				-0.5,
				-0.5,
				-0.5
			],
			"type":"VEC3"
		},
		{
			"bufferView":12,
			"componentType":5126,
			"count":24,
			"type":"VEC3"
		},
		{
			"bufferView":13,
			"componentType":5126,
			"count":24,
			"type":"VEC2"
		},
		{
			"bufferView":14,
			"componentType":5126,
			"count":24,
			"max":[
				0.5,
				0.5,
				0.5
			],
			"min":[
				-0.5,
				-0.5,
				-0.5
			],
			"type":"VEC3"
		},
		{
			"bufferView":15,
			"componentType":5126,
			"count":24,
			"type":"VEC3"
		},
		{
			"bufferView":16,
			"componentType":5126,
			"count":24,
			"type":"VEC2"
		},
		{
			"bufferView":17,
			"componentType":5126,
			"count":24,
			"max":[
				0.5,
				0.5,
				0.5
			],
			"min":[
				-0.5,
				-0.5,
				-0.5
			],
			"type":"VEC3"
		},
		{
			"bufferView":18,
			"componentType":5126,
			"count":24,
			"type":"VEC3"
		},
		{
			"bufferView":19,
			"componentType":5126,
			"count":24,
			"type":"VEC2"
		},
		{
			"bufferView":20,
			"componentType":5126,
			"count":24,
			"max":[
				0.5,
				0.5,
				0.5
			],
			"min":[
				-0.5,
				-0.5,
				-0.5
			],
			"type":"VEC3"
		},
		{
			"bufferView":21,
			"componentType":5126,
			"count":24,
			"type":"VEC3"
		},
		{
			"bufferView":22,
			"componentType":5126,
			"count":24,
			"type":"VEC2"
		}
	],
	"bufferViews":[
		{
			"buffer":0,
			"byteLength":48,
			"byteOffset":0,
			"target":34962
		},
		{
			"buffer":0,
			"byteLength":48,
			"byteOffset":48,
			"target":34962
		},
		{
			"buffer":0,
			"byteLength":32,
			"byteOffset":96,
			"target":34962
		},
		{
			"buffer":0,
			"byteLength":12,
			"byteOffset":128,
			"target":34963
		},
		{
			"buffer":0,
			"byteLength":288,
			"byteOffset":140,
			"target":34962
		},
		{
			"buffer":0,
			"byteLength":288,
			"byteOffset":428,
			"target":34962
		},
		{
			"buffer":0,
			"byteLength":192,
			"byteOffset":716,
			"target":34962
		},
		{
			"buffer":0,
			"byteLength":72,
			"byteOffset":908,
			"target":34963
		},
		{
			"buffer":0,
			"byteLength":288,
			"byteOffset":980,
			"target":34962
		},
		{
			"buffer":0,
			"byteLength":288,
			"byteOffset":1268,
			"target":34962
		},
		{
			"buffer":0,
			"byteLength":192,
			"byteOffset":1556,
			"target":34962
		},
		{
			"buffer":0,
			"byteLength":288,
			"byteOffset":1748,
			"target":34962
		},
		{
			"buffer":0,
			"byteLength":288,
			"byteOffset":2036,
			"target":34962
		},
		{
			"buffer":0,
			"byteLength":192,
			"byteOffset":2324,
			"target":34962
		},
		{
			"buffer":0,
			"byteLength":288,
			"byteOffset":2516,
			"target":34962
		},
		{
			"buffer":0,
			"byteLength":288,
			"byteOffset":2804,
			"target":34962
		},
		{
			"buffer":0,
			"byteLength":192,
			"byteOffset":3092,
			"target":34962
		},
		{
			"buffer":0,
			"byteLength":288,
			"byteOffset":3284,
			"target":34962
		},
		{
			"buffer":0,
			"byteLength":288,
			"byteOffset":3572,
			"target":34962
		},
		{
			"buffer":0,
			"byteLength":192,
			"byteOffset":3860,
			"target":34962
		},
		{
			"buffer":0,
			"byteLength":288,
			"byteOffset":4052,
			"target":34962
		},
		{
			"buffer":0,
			"byteLength":288,
			"byteOffset":4340,
			"target":34962
		},
		{
			"buffer":0,
			"byteLength":192,
			"byteOffset":4628,
			"target":34962
		}
	],
	"buffers":[
		{
			"byteLength":4820,
			"uri":"Environment.bin"
		}
	]
}
